<svg width="17" height="30" viewBox="0 0 17 30" fill="none" xmlns="http://www.w3.org/2000/svg">
<path d="M8.97184 13.1667C5.2554 12.1833 4.06025 11.1667 4.06025 9.58333C4.06025 7.76667 5.71382 6.5 8.48068 6.5C11.3949 6.5 12.4754 7.91667 12.5737 10H16.1919C16.0773 7.13333 14.3582 4.5 10.9365 3.65V0H6.02488V3.6C2.84872 4.3 0.294695 6.4 0.294695 9.61667C0.294695 13.4667 3.42174 15.3833 7.98952 16.5C12.0825 17.5 12.9011 18.9667 12.9011 20.5167C12.9011 21.6667 12.0989 23.5 8.48068 23.5C5.10805 23.5 3.78193 21.9667 3.60183 20H0C0.196464 23.65 2.88147 25.7 6.02488 26.3833V30H10.9365V26.4167C14.129 25.8 16.6667 23.9167 16.6667 20.5C16.6667 15.7667 12.6883 14.15 8.97184 13.1667Z" fill="#061839"/>
</svg>
