<svg width="21" height="21" viewBox="0 0 21 21" fill="none" xmlns="http://www.w3.org/2000/svg">
<path d="M14.3656 6.47623L14.1947 6.55531L14.1185 6.72748L13.6635 7.7545L13.2197 6.7311L13.1435 6.5553L12.9693 6.47547L11.9318 6L12.9693 5.52454L13.1435 5.44471L13.2197 5.26891L13.6635 4.24551L14.1185 5.27253L14.1947 5.4447L14.3656 5.52377L15.3948 6L14.3656 6.47623ZM2.80271 8.51566L2.51215 8.59012L2.44107 8.88153L2.43902 8.88991L2.43698 8.88153L2.3659 8.59012L2.07533 8.51566L2.01426 8.50001L2.07533 8.48436L2.3659 8.4099L2.43698 8.11848L2.43902 8.1101L2.44107 8.11848L2.51215 8.4099L2.80271 8.48436L2.86379 8.50001L2.80271 8.51566Z" fill="#FAFAFA" stroke="#FAFAFA"/>
<path d="M1.95117 18L8.42255 11.3668C8.61876 11.1657 8.94212 11.1657 9.13833 11.3668L13.3006 15.6332C13.4968 15.8343 13.8202 15.8343 14.0164 15.6332L20 9.5" stroke="#FAFAFA" stroke-width="2" stroke-linecap="round"/>
</svg>
