<svg width="32" height="32" viewBox="0 0 32 32" fill="none" xmlns="http://www.w3.org/2000/svg">
<path d="M9.11286 30.4515H4.84515C4.09057 30.4515 3.36689 30.1517 2.83332 29.6181C2.29976 29.0846 2 28.3609 2 27.6063V17.6483C2 16.8937 2.29976 16.17 2.83332 15.6365C3.36689 15.1029 4.09057 14.8032 4.84515 14.8032H9.11286M19.0709 11.958V6.26772C19.0709 5.13585 18.6212 4.05034 17.8209 3.24999C17.0205 2.44963 15.935 2 14.8032 2L9.11286 14.8032V30.4515H25.1595C25.8456 30.4592 26.5115 30.2187 27.0343 29.7743C27.5571 29.3299 27.9017 28.7115 28.0046 28.0331L29.9678 15.2299C30.0297 14.8222 30.0022 14.4058 29.8872 14.0097C29.7722 13.6136 29.5725 13.2473 29.3018 12.9361C29.0312 12.6248 28.6961 12.3761 28.3198 12.2073C27.9436 12.0384 27.5351 11.9533 27.1226 11.958H19.0709Z" stroke="#061839" stroke-opacity="0.5" stroke-width="3" stroke-linecap="round" stroke-linejoin="round"/>
</svg>
