<svg width="28" height="28" viewBox="0 0 28 28" fill="none" xmlns="http://www.w3.org/2000/svg">
<path d="M18.6616 22.1427H9.17522C9.05982 21.734 8.89134 21.3422 8.6741 20.9773L20.9924 8.65898C21.694 9.08947 22.5002 9.31924 23.3233 9.32326C24.1958 9.32609 25.0516 9.08399 25.7933 8.6245C26.535 8.16501 27.1329 7.50657 27.5189 6.72409C27.905 5.94161 28.0636 5.06649 27.9769 4.19829C27.8902 3.33009 27.5615 2.50366 27.0283 1.813C26.4952 1.12235 25.7788 0.595192 24.9609 0.291507C24.1429 -0.0121784 23.2561 -0.0802036 22.4014 0.0951691C21.5467 0.270542 20.7584 0.682272 20.1261 1.28352C19.4938 1.88478 19.0429 2.65141 18.8248 3.49623H9.17522C8.89157 2.39765 8.21699 1.44023 7.27793 0.80344C6.33887 0.166648 5.1998 -0.1058 4.07424 0.0371659C2.94867 0.180131 1.91389 0.728694 1.16385 1.58003C0.413803 2.43137 0 3.52703 0 4.66163C0 5.79624 0.413803 6.8919 1.16385 7.74324C1.91389 8.59457 2.94867 9.14314 4.07424 9.2861C5.1998 9.42907 6.33887 9.15662 7.27793 8.51983C8.21699 7.88304 8.89157 6.92562 9.17522 5.82704H18.8248C18.9402 6.23574 19.1087 6.62754 19.3259 6.99245L7.00757 19.3108C6.30603 18.8803 5.49983 18.6505 4.67675 18.6465C3.80424 18.6437 2.94844 18.8858 2.20671 19.3453C1.46498 19.8048 0.867094 20.4632 0.481066 21.2457C0.0950381 22.0282 -0.0636358 22.9033 0.023093 23.7715C0.109822 24.6397 0.438472 25.4661 0.971659 26.1568C1.50485 26.8474 2.22117 27.3746 3.03913 27.6783C3.8571 27.9819 4.74388 28.05 5.59859 27.8746C6.45331 27.6992 7.24165 27.2875 7.87394 26.6862C8.50623 26.085 8.95709 25.3183 9.17522 24.4735H18.6616V27.9698H27.9849V18.6465H18.6616V22.1427ZM4.67675 6.99245C4.21576 6.99245 3.76513 6.85575 3.38183 6.59963C2.99853 6.34352 2.69978 5.9795 2.52337 5.5536C2.34695 5.1277 2.30079 4.65905 2.39073 4.20692C2.48066 3.75478 2.70265 3.33947 3.02862 3.0135C3.35459 2.68753 3.7699 2.46554 4.22204 2.37561C4.67417 2.28567 5.14282 2.33183 5.56872 2.50825C5.99462 2.68466 6.35864 2.98341 6.61475 3.36671C6.87087 3.75001 7.00757 4.20064 7.00757 4.66163C7.00757 5.2798 6.762 5.87265 6.32489 6.30977C5.88778 6.74688 5.29492 6.99245 4.67675 6.99245ZM23.3233 2.33082C23.7842 2.33082 24.2349 2.46752 24.6182 2.72364C25.0015 2.97975 25.3002 3.34377 25.4766 3.76967C25.6531 4.19557 25.6992 4.66422 25.6093 5.11635C25.5193 5.56849 25.2974 5.9838 24.9714 6.30977C24.6454 6.63574 24.2301 6.85773 23.778 6.94766C23.3258 7.0376 22.8572 6.99144 22.4313 6.81502C22.0054 6.63861 21.6414 6.33986 21.3853 5.95656C21.1291 5.57326 20.9924 5.12263 20.9924 4.66163C20.9924 4.04347 21.238 3.45061 21.6751 3.0135C22.1122 2.57639 22.7051 2.33082 23.3233 2.33082ZM4.67675 25.6389C4.21576 25.6389 3.76513 25.5022 3.38183 25.2461C2.99853 24.99 2.69978 24.626 2.52337 24.2001C2.34695 23.7742 2.30079 23.3055 2.39073 22.8534C2.48066 22.4013 2.70265 21.986 3.02862 21.66C3.35459 21.334 3.7699 21.112 4.22204 21.0221C4.67417 20.9322 5.14282 20.9783 5.56872 21.1547C5.99462 21.3312 6.35864 21.6299 6.61475 22.0132C6.87087 22.3965 7.00757 22.8471 7.00757 23.3081C7.00757 23.9263 6.762 24.5191 6.32489 24.9563C5.88778 25.3934 5.29492 25.6389 4.67675 25.6389ZM20.9924 20.9773H25.6541V25.6389H20.9924V20.9773Z" fill="#061839"/>
</svg>
